<?xml version="1.0" encoding="UTF-8"?>
<svg xmlns="http://www.w3.org/2000/svg" width="119" height="40" viewBox="0 0 119 40" fill="none">
  <path d="M19.1014 4.22611H17.9672C17.9672 4.04363 17.978 3.8684 18.001 3.69921C18.0239 3.53002 18.071 3.34632 18.1447 3.14571H19.2789L19.3478 2.74933C19.5024 1.82845 19.8056 1.13961 20.2573 0.684009C20.7078 0.228406 21.3444 0 22.1645 0C22.4013 0 22.6066 0.0157104 22.7793 0.0483398C22.9521 0.0809692 23.1115 0.119641 23.2577 0.164355C23.2033 0.401221 23.1465 0.599414 23.0874 0.758935C23.0282 0.918457 22.9533 1.08523 22.8615 1.25804C22.7612 1.22179 22.6561 1.18916 22.5474 1.16257C22.4375 1.13478 22.3107 1.12148 22.1645 1.12148C21.9725 1.12148 21.7998 1.14686 21.6451 1.19641C21.4905 1.24717 21.3516 1.33297 21.2284 1.45624C21.1052 1.5795 20.9977 1.74869 20.9071 1.9626C20.8153 2.1765 20.7429 2.44841 20.6885 2.77591C20.6704 2.83997 20.6559 2.9016 20.6474 2.96081C20.6378 3.02003 20.6245 3.08166 20.6064 3.14571H22.2877C22.2877 3.33666 22.2757 3.51551 22.2539 3.67866C22.231 3.84302 22.1827 4.0255 22.1102 4.22611H20.4288L19.3755 10.2033C19.2656 10.8136 19.1316 11.3296 18.9721 11.749C18.8127 12.1683 18.6146 12.5079 18.3778 12.7678C18.1411 13.0276 17.8657 13.2149 17.5504 13.3285C17.2364 13.4421 16.8692 13.4989 16.4501 13.4989C16.2496 13.4989 16.0587 13.4832 15.8763 13.4506C15.6939 13.4179 15.5345 13.3756 15.398 13.32C15.4342 13.1098 15.4801 12.9212 15.5345 12.752C15.5889 12.5829 15.6625 12.4173 15.7531 12.2529C15.8449 12.2892 15.9464 12.3194 16.0611 12.3424C16.1747 12.3653 16.2918 12.3762 16.4102 12.3762C16.6204 12.3762 16.8088 12.3484 16.9779 12.294C17.147 12.2396 17.2944 12.1297 17.4224 11.9653C17.5504 11.801 17.6664 11.5713 17.7715 11.2741C17.8766 10.978 17.9696 10.5925 18.0517 10.1187L19.1038 4.22369L19.1014 4.22611Z" fill="#EE4A7C"></path>
  <path d="M29.9288 10.3266C29.0808 10.3266 28.4431 10.0921 28.0143 9.62204C27.5855 9.15194 27.3717 8.48968 27.3717 7.63165C27.3717 7.13013 27.449 6.60322 27.6036 6.05215C27.7582 5.50107 27.9974 4.99955 28.3211 4.54757C28.6448 4.0968 29.0506 3.72217 29.5374 3.42609C30.0254 3.13 30.6016 2.98136 31.2671 2.98136C32.1235 2.98136 32.7661 3.21822 33.1949 3.69316C33.6237 4.16689 33.8375 4.83277 33.8375 5.6896C33.8375 6.20079 33.7602 6.7289 33.6055 7.27635C33.4509 7.8238 33.213 8.32291 32.8941 8.77368C32.5752 9.22566 32.1694 9.59667 31.6778 9.88791C31.1862 10.1792 30.6028 10.3254 29.9276 10.3254L29.9288 10.3266ZM30.0653 9.2462C30.4941 9.2462 30.86 9.13019 31.1656 8.89695C31.4712 8.66492 31.7188 8.37004 31.9109 8.01474C32.1029 7.65945 32.2431 7.27394 32.3349 6.85942C32.4254 6.44491 32.4713 6.05456 32.4713 5.6896C32.4713 5.16994 32.3554 4.77356 32.1223 4.49923C31.8904 4.22611 31.5594 4.08834 31.1306 4.08834C30.7018 4.08834 30.3382 4.20677 30.0375 4.44364C29.7367 4.6805 29.4903 4.97659 29.2995 5.33309C29.1086 5.6896 28.9685 6.0739 28.8827 6.48841C28.7958 6.90293 28.7523 7.28844 28.7523 7.64374C28.7523 8.16339 28.8634 8.55978 29.0869 8.8341C29.3103 9.10722 29.6353 9.24499 30.064 9.24499L30.0653 9.2462Z" fill="#EE4A7C"></path>
  <path d="M40.9615 6.10049C41.0618 5.55304 41.1415 5.08414 41.2007 4.69138C41.2599 4.29983 41.2901 3.95782 41.2901 3.66537C41.2901 3.54693 41.2876 3.45388 41.2828 3.385C41.278 3.31611 41.2671 3.23273 41.249 3.13242C41.3492 3.11429 41.4592 3.101 41.5775 3.09133C41.6959 3.08287 41.8058 3.07804 41.9061 3.07804C41.9967 3.07804 42.0993 3.08287 42.2141 3.09133C42.3276 3.101 42.4303 3.11429 42.5221 3.13242C42.5402 3.20614 42.5535 3.28953 42.5632 3.385C42.5716 3.48047 42.5764 3.60615 42.5764 3.76084C42.5764 3.93365 42.5644 4.09801 42.5426 4.2527C42.5197 4.40738 42.4943 4.55845 42.4677 4.70347C42.5583 4.51252 42.6864 4.31312 42.8506 4.10889C43.0149 3.90344 43.2057 3.71854 43.4244 3.55539C43.643 3.39104 43.887 3.25448 44.1563 3.14451C44.4245 3.03453 44.7096 2.98015 45.0103 2.98015C45.5575 2.98015 45.9827 3.12638 46.2882 3.41763C46.5938 3.71008 46.746 4.16085 46.746 4.77114C46.746 4.9077 46.7364 5.06118 46.7183 5.22916C46.7001 5.39835 46.6772 5.56029 46.6494 5.71498L45.8703 10.1598C45.7604 10.178 45.642 10.1912 45.5152 10.2009C45.3872 10.2094 45.2736 10.2142 45.1734 10.2142C45.0731 10.2142 44.962 10.2094 44.8388 10.2009C44.7156 10.1912 44.6081 10.178 44.5175 10.1598L45.2555 5.94701C45.2833 5.80078 45.3038 5.65939 45.3171 5.52283C45.3304 5.38627 45.3376 5.26783 45.3376 5.16753C45.3376 4.80256 45.2531 4.54274 45.0852 4.38805C44.9161 4.23336 44.6914 4.15602 44.4088 4.15602C44.1624 4.15602 43.9208 4.23094 43.6841 4.38201C43.4473 4.53307 43.2239 4.75422 43.0137 5.04547C42.8035 5.33793 42.6151 5.69806 42.446 6.12586C42.2769 6.55488 42.1428 7.04674 42.0426 7.60265L41.5908 10.1598C41.4809 10.178 41.3625 10.1912 41.2357 10.2009C41.1077 10.2094 40.9941 10.2142 40.8939 10.2142C40.7936 10.2142 40.6825 10.2094 40.5593 10.2009C40.4361 10.1912 40.3286 10.178 40.238 10.1598L40.9627 6.09807L40.9615 6.10049Z" fill="#EE4A7C"></path>
  <path d="M59.157 7.18088C59.0567 7.72833 58.9794 8.19723 58.9251 8.58999C58.8707 8.98275 58.8429 9.32475 58.8429 9.616V9.89637C58.8429 9.96526 58.8514 10.0486 58.8707 10.1489C58.7704 10.1671 58.6629 10.1804 58.5494 10.19C58.4359 10.1985 58.3284 10.2033 58.2281 10.2033C58.1279 10.2033 58.0228 10.1985 57.9141 10.19C57.8041 10.1804 57.7039 10.1671 57.6133 10.1489C57.5952 10.0764 57.5795 9.99668 57.565 9.90967C57.5517 9.82265 57.5445 9.7018 57.5445 9.54712C57.5445 9.43714 57.5553 9.28487 57.5783 9.0891C57.6012 8.89332 57.635 8.71325 57.6809 8.5489C57.571 8.74951 57.4345 8.95495 57.2703 9.16402C57.106 9.3743 56.9151 9.56524 56.6965 9.73806C56.4779 9.91087 56.2339 10.0523 55.9658 10.1622C55.6964 10.2722 55.4077 10.3266 55.0973 10.3266C54.4958 10.3266 54.0404 10.1284 53.73 9.73202C53.4196 9.33563 53.2649 8.79543 53.2649 8.11142C53.2649 7.46367 53.3652 6.83284 53.5657 6.2165C53.7662 5.60138 54.0621 5.05393 54.4547 4.57537C54.8461 4.0968 55.3365 3.71129 55.9247 3.42004C56.5129 3.1288 57.1893 2.98257 57.9551 2.98257C58.0554 2.98257 58.1605 2.9874 58.2692 2.99586C58.3791 3.00553 58.4697 3.01399 58.5422 3.02366C58.6424 2.49434 58.7197 2.03873 58.7741 1.65564C58.8284 1.27255 58.8562 0.935376 58.8562 0.64292V0.3698C58.8562 0.305749 58.8514 0.228406 58.8429 0.137769C58.9432 0.119641 59.064 0.106348 59.2053 0.0966797C59.3466 0.0882202 59.4674 0.0833862 59.5676 0.0833862C59.6582 0.0833862 59.7609 0.0858032 59.8757 0.0906372C59.9892 0.0954712 60.0919 0.106348 60.1837 0.124475C60.2114 0.306958 60.2247 0.476147 60.2247 0.630835C60.2247 0.841113 60.2042 1.1094 60.1631 1.43811C60.1221 1.76682 60.0737 2.08103 60.0194 2.38194L59.1582 7.1833L59.157 7.18088ZM58.3634 4.18502C58.2535 4.15723 58.1399 4.1391 58.0216 4.13064C57.9032 4.12218 57.7703 4.11734 57.6254 4.11734C57.17 4.11734 56.7617 4.22248 56.4018 4.43155C56.0419 4.64183 55.7314 4.9222 55.4717 5.27267C55.212 5.62434 55.0139 6.02073 54.8775 6.46304C54.741 6.90534 54.6721 7.35853 54.6721 7.8238C54.6721 8.26128 54.7494 8.60086 54.904 8.84256C55.0586 9.08426 55.2918 9.20511 55.601 9.20511C55.8836 9.20511 56.1566 9.11448 56.4211 8.93199C56.6856 8.74951 56.9272 8.49693 57.1459 8.17306C57.3645 7.84918 57.5565 7.47092 57.7196 7.03828C57.8839 6.60564 58.0107 6.14278 58.1025 5.64972L58.3622 4.18623L58.3634 4.18502Z" fill="#EE4A7C"></path>
  <path d="M71.9254 7.18088C71.8252 7.72833 71.7455 8.19723 71.6863 8.58999C71.6271 8.98275 71.5981 9.32475 71.5981 9.616C71.5981 9.73443 71.6005 9.82749 71.6053 9.89637C71.6102 9.96526 71.621 10.0486 71.6392 10.1489C71.5389 10.1671 71.429 10.1804 71.3106 10.19C71.1922 10.1985 71.0823 10.2033 70.9821 10.2033C70.8903 10.2033 70.79 10.1985 70.6813 10.19C70.5714 10.1804 70.4675 10.1671 70.3673 10.1489C70.3492 10.0486 70.3347 9.94592 70.3262 9.84078C70.3177 9.73564 70.3129 9.60633 70.3129 9.45044C70.3129 9.35013 70.325 9.21357 70.3467 9.03955C70.3697 8.86673 70.3951 8.71084 70.4216 8.57428C70.3214 8.77489 70.1885 8.97791 70.0254 9.18336C69.8612 9.3888 69.6715 9.57612 69.4577 9.7441C69.2439 9.91329 69.0024 10.0523 68.733 10.161C68.4637 10.271 68.175 10.3254 67.8645 10.3254C67.263 10.3254 66.8101 10.1272 66.5045 9.73081C66.1989 9.33442 66.0467 8.79422 66.0467 8.11022C66.0467 7.46246 66.1469 6.83163 66.3475 6.21529C66.548 5.60017 66.8439 5.05272 67.2365 4.57416C67.6278 4.09559 68.1158 3.71008 68.6992 3.41883C69.2826 3.12759 69.9614 2.98136 70.7357 2.98136C71.0642 2.98136 71.394 3.00674 71.7273 3.05629C72.0595 3.10704 72.3542 3.17714 72.6091 3.26777L71.9254 7.17967V7.18088ZM71.1464 4.18502C71.0364 4.15723 70.9229 4.1391 70.8045 4.13064C70.6861 4.12218 70.5533 4.11734 70.4083 4.11734C69.953 4.11734 69.5447 4.22248 69.1848 4.43155C68.8248 4.64183 68.5144 4.9222 68.2547 5.27267C67.995 5.62434 67.7969 6.02073 67.6604 6.46304C67.5239 6.90534 67.4551 7.35853 67.4551 7.8238C67.4551 8.26128 67.5324 8.60086 67.6882 8.84256C67.8428 9.08426 68.0759 9.20511 68.3851 9.20511C68.6678 9.20511 68.9408 9.11448 69.2053 8.93199C69.4698 8.74951 69.7114 8.49693 69.93 8.17306C70.1486 7.84918 70.3383 7.47092 70.4977 7.03828C70.6572 6.60564 70.7828 6.14278 70.8734 5.64972L71.1464 4.18623V4.18502Z" fill="#EE4A7C"></path>
  <path d="M78.9782 4.22611C78.9782 4.04363 78.9915 3.86839 79.0193 3.69921C79.0459 3.53002 79.0966 3.34632 79.1703 3.14571H80.2634C80.3093 2.90885 80.3492 2.66715 80.3866 2.42062C80.4228 2.17408 80.441 1.91909 80.441 1.65443V1.43569C80.6233 1.34506 80.842 1.27617 81.0968 1.23025C81.3517 1.18433 81.5703 1.16136 81.7527 1.16136C81.7612 1.24354 81.7684 1.32572 81.7732 1.4079C81.7781 1.49008 81.7805 1.57709 81.7805 1.66772C81.7805 1.95051 81.7443 2.30098 81.6706 2.72032L81.5884 3.14451H83.3519C83.3519 3.34512 83.3387 3.53002 83.3109 3.698C83.2831 3.86719 83.2372 4.04242 83.1744 4.2249H81.4242L80.8915 7.19297C80.8456 7.40324 80.8045 7.61957 80.7683 7.84314C80.7321 8.06671 80.7139 8.26974 80.7139 8.45222C80.7139 8.72534 80.784 8.91507 80.9265 9.02021C81.0678 9.12535 81.2563 9.17732 81.4942 9.17732C81.6488 9.17732 81.7902 9.16644 81.9182 9.14348C82.0462 9.12052 82.1731 9.09151 82.3011 9.05405C82.3277 9.1459 82.3506 9.24499 82.3687 9.35497C82.3868 9.46494 82.3965 9.58337 82.3965 9.71026V9.90846C82.3965 9.97734 82.3917 10.0474 82.3832 10.1199C82.2648 10.1562 82.1102 10.19 81.9182 10.2227C81.7273 10.2541 81.522 10.271 81.3034 10.271C81.0111 10.271 80.7453 10.2505 80.5038 10.2094C80.2622 10.1683 80.0544 10.0909 79.8817 9.97734C79.709 9.86374 79.5737 9.70785 79.4783 9.51207C79.3829 9.31629 79.3345 9.05888 79.3345 8.73984C79.3345 8.56703 79.3502 8.38213 79.3829 8.18635C79.4143 7.99057 79.4493 7.78755 79.4855 7.57727L80.0871 4.22611H78.9782Z" fill="#EE4A7C"></path>
  <path d="M90.2441 4.22611H89.3962C89.3962 4.04363 89.407 3.86598 89.43 3.69316C89.4529 3.52035 89.5 3.33787 89.5737 3.14571H91.7612L90.5304 10.1622C90.4301 10.1804 90.3141 10.1912 90.1813 10.1961C90.0496 10.2009 89.9324 10.2033 89.8322 10.2033C89.7319 10.2033 89.6269 10.2009 89.5182 10.1961C89.4082 10.1912 89.3044 10.1804 89.2041 10.1622L90.2429 4.22611H90.2441ZM90.2308 1.69552C90.2308 1.43086 90.2537 1.1807 90.2996 0.943835C90.3455 0.70697 90.4047 0.465271 90.4772 0.218738C90.6052 0.20061 90.7417 0.187317 90.8879 0.177649C91.034 0.169189 91.1609 0.164355 91.2708 0.164355C91.3807 0.164355 91.5051 0.169189 91.6464 0.177649C91.7877 0.187317 91.917 0.20061 92.0366 0.218738C92.0269 0.483398 92.0003 0.735974 91.9544 0.977673C91.9085 1.21937 91.8494 1.45865 91.7769 1.69552C91.6488 1.71365 91.5124 1.72573 91.3662 1.72936C91.22 1.73419 91.0932 1.73661 90.9833 1.73661C90.883 1.73661 90.7598 1.73419 90.6137 1.72936C90.4675 1.72452 90.3407 1.71365 90.2308 1.69552Z" fill="#EE4A7C"></path>
  <path d="M100.701 10.3266C99.8528 10.3266 99.215 10.0921 98.7862 9.62204C98.3574 9.15194 98.1436 8.48968 98.1436 7.63165C98.1436 7.13013 98.2209 6.60322 98.3755 6.05215C98.5301 5.50107 98.7693 4.99955 99.093 4.54757C99.4167 4.0968 99.8225 3.72217 100.309 3.42609C100.797 3.13 101.373 2.98136 102.039 2.98136C102.895 2.98136 103.538 3.21822 103.967 3.69316C104.396 4.16689 104.609 4.83277 104.609 5.6896C104.609 6.20079 104.532 6.7289 104.376 7.27635C104.222 7.8238 103.985 8.32291 103.666 8.77368C103.347 9.22566 102.941 9.59667 102.45 9.88791C101.958 10.1792 101.375 10.3254 100.699 10.3254L100.701 10.3266ZM100.837 9.2462C101.266 9.2462 101.632 9.13019 101.938 8.89695C102.243 8.66492 102.491 8.37004 102.683 8.01474C102.874 7.65945 103.015 7.27394 103.107 6.85942C103.197 6.44491 103.243 6.05456 103.243 5.6896C103.243 5.16994 103.127 4.77356 102.894 4.49923C102.661 4.2249 102.331 4.08834 101.903 4.08834C101.474 4.08834 101.11 4.20677 100.809 4.44364C100.509 4.6805 100.262 4.97659 100.071 5.33309C99.8793 5.68839 99.7404 6.0739 99.6547 6.48841C99.5677 6.90293 99.5242 7.28844 99.5242 7.64374C99.5242 8.16339 99.6353 8.55978 99.8588 8.8341C100.082 9.10722 100.408 9.24499 100.836 9.24499L100.837 9.2462Z" fill="#EE4A7C"></path>
  <path d="M111.733 6.10049C111.834 5.55304 111.913 5.08414 111.973 4.69138C112.032 4.29983 112.061 3.95782 112.061 3.66537C112.061 3.54693 112.058 3.45388 112.054 3.385C112.049 3.31611 112.038 3.23273 112.02 3.13242C112.12 3.11429 112.229 3.101 112.348 3.09133C112.467 3.08287 112.575 3.07804 112.677 3.07804C112.767 3.07804 112.87 3.08287 112.985 3.09133C113.098 3.101 113.201 3.11429 113.293 3.13242C113.311 3.20614 113.324 3.28953 113.334 3.385C113.342 3.48047 113.347 3.60615 113.347 3.76084C113.347 3.93365 113.335 4.09801 113.313 4.2527C113.29 4.40738 113.266 4.55845 113.238 4.70347C113.329 4.51252 113.457 4.31312 113.621 4.10889C113.786 3.90465 113.976 3.71854 114.195 3.55539C114.414 3.39104 114.658 3.25448 114.926 3.14451C115.195 3.03453 115.479 2.98015 115.78 2.98015C116.327 2.98015 116.752 3.12638 117.058 3.41763C117.363 3.71008 117.516 4.16085 117.516 4.77114C117.516 4.9077 117.507 5.06118 117.488 5.22916C117.47 5.39835 117.447 5.56029 117.42 5.71498L116.641 10.1598C116.531 10.178 116.413 10.1912 116.286 10.2009C116.158 10.2094 116.044 10.2142 115.944 10.2142C115.844 10.2142 115.731 10.2094 115.609 10.2009C115.486 10.1912 115.379 10.178 115.288 10.1598L116.026 5.94701C116.054 5.80078 116.075 5.65939 116.088 5.52283C116.101 5.38627 116.108 5.26783 116.108 5.16753C116.108 4.80256 116.024 4.54274 115.855 4.38805C115.686 4.23336 115.461 4.15602 115.178 4.15602C114.932 4.15602 114.69 4.23094 114.454 4.38201C114.217 4.53307 113.993 4.75422 113.783 5.04547C113.573 5.33793 113.385 5.69806 113.215 6.12586C113.046 6.55488 112.912 7.04674 112.812 7.60265L112.36 10.1598C112.25 10.178 112.132 10.1912 112.005 10.2009C111.877 10.2094 111.764 10.2142 111.663 10.2142C111.563 10.2142 111.452 10.2094 111.329 10.2009C111.206 10.1912 111.098 10.178 111.007 10.1598L111.732 6.09807L111.733 6.10049Z" fill="#EE4A7C"></path>
  <path d="M15.189 33.3303C15.189 34.6524 14.9487 35.7437 14.4692 36.6041C13.9884 37.4646 13.3277 38.1462 12.4882 38.6465C11.6476 39.1468 10.6462 39.4973 9.48666 39.6979C8.32589 39.8973 7.06487 39.9976 5.70359 39.9976C4.62254 39.9976 3.65141 39.9577 2.7914 39.8779C1.93019 39.7982 1.00012 39.6979 0 39.577V18.1021C0.760962 17.9824 1.59077 17.8821 2.49185 17.8011C3.39293 17.7214 4.44378 17.6815 5.64441 17.6815C6.84504 17.6815 7.8512 17.777 8.84166 17.9667C9.83212 18.1576 10.6982 18.4767 11.4386 18.9275C12.179 19.3782 12.7636 19.9789 13.1948 20.7293C13.6248 21.4798 13.8398 22.4261 13.8398 23.5681C13.8398 24.5095 13.6297 25.3651 13.2093 26.1361C12.789 26.9072 12.2587 27.5029 11.6186 27.9235C12.0788 28.1036 12.5233 28.3392 12.9545 28.6293C13.3845 28.9193 13.765 29.2806 14.0947 29.7109C14.4245 30.1423 14.6902 30.6571 14.8907 31.2577C15.09 31.8584 15.1915 32.5496 15.1915 33.3303H15.189ZM5.19266 26.3017H6.03334C6.89335 26.3017 7.56493 26.1265 8.04446 25.776C8.52519 25.4255 8.76435 24.8201 8.76435 23.9584C8.76435 23.5379 8.67859 23.1874 8.50949 22.907C8.33918 22.6267 8.12418 22.4067 7.86448 22.246C7.60358 22.0853 7.31369 21.9753 6.99361 21.9161C6.67352 21.8556 6.36309 21.8254 6.06354 21.8254H5.62871C5.45839 21.8254 5.31345 21.8363 5.19387 21.8556V26.3005L5.19266 26.3017ZM5.19266 30.5665V35.6132C5.33278 35.6337 5.50792 35.6482 5.71809 35.6579C5.92826 35.6688 6.20365 35.6736 6.54428 35.6736C6.92476 35.6736 7.31007 35.6337 7.70021 35.5539C8.09036 35.4742 8.44547 35.3388 8.76556 35.1479C9.08565 34.9582 9.34051 34.6971 9.53135 34.3672C9.72099 34.0361 9.81641 33.6216 9.81641 33.1212C9.81641 32.1593 9.50116 31.4946 8.87064 31.1236C8.24013 30.7538 7.42482 30.5677 6.42349 30.5677H5.19266V30.5665Z" fill="#EE4A7C"></path>
  <path d="M18.5506 28.9157C18.5506 27.3144 18.7354 25.8268 19.1062 24.4551C19.4758 23.0835 20.0471 21.8979 20.8178 20.8961C21.5884 19.8955 22.5692 19.1087 23.7601 18.5383C24.9511 17.9679 26.3667 17.6827 28.0082 17.6827C29.6497 17.6827 31.0605 17.9679 32.2406 18.5383C33.4207 19.1087 34.3967 19.8955 35.1673 20.8961C35.938 21.8979 36.5081 23.0835 36.8789 24.4551C37.2485 25.8268 37.4345 27.3132 37.4345 28.9157C37.4345 30.5181 37.2497 31.9937 36.8789 33.346C36.5081 34.6971 35.938 35.8694 35.1673 36.8603C34.3967 37.8513 33.4207 38.6223 32.2406 39.1734C31.0593 39.7245 29.6485 40 28.0082 40C26.3679 40 24.9511 39.7245 23.7601 39.1734C22.5692 38.6223 21.5884 37.8513 20.8178 36.8603C20.0471 35.8694 19.477 34.6983 19.1062 33.346C18.7354 31.9949 18.5506 30.5181 18.5506 28.9157ZM31.8493 28.9157C31.8493 24.5506 30.5786 22.368 28.0372 22.368C25.4959 22.368 24.1346 24.5506 24.1346 28.9157C24.1346 31.0982 24.4498 32.7261 25.0803 33.7968C25.7109 34.8687 26.6868 35.4041 28.007 35.4041C30.5689 35.4041 31.8493 33.2421 31.8493 28.9169V28.9157Z" fill="#EE4A7C"></path>
  <path d="M44.6987 22.7282H39.6848C39.5048 21.8677 39.4142 21.0762 39.4142 20.3559C39.4142 19.6949 39.5048 18.925 39.6848 18.0428H55.0248C55.1045 18.4839 55.1649 18.8936 55.2048 19.2743C55.2447 19.655 55.2652 20.0151 55.2652 20.3559C55.2652 21.017 55.1855 21.8073 55.0248 22.7282H50.0109V39.548C48.9492 39.7281 48.0699 39.8187 47.3693 39.8187C46.6289 39.8187 45.7375 39.7281 44.6975 39.548V22.7282H44.6987Z" fill="#EE4A7C"></path>
  <path d="M59.1678 18.1021C59.6075 18.0223 60.0085 17.9619 60.3685 17.922C60.7284 17.8821 61.0787 17.8616 61.4193 17.8616C61.7793 17.8616 62.1549 17.8869 62.5451 17.9365C62.9352 17.9873 63.2698 18.0416 63.5512 18.1021L70.5158 29.8764V18.1021C71.0364 18.0223 71.5063 17.9619 71.9266 17.922C72.347 17.8821 72.7275 17.8616 73.0681 17.8616C73.4087 17.8616 73.7686 17.8821 74.1491 17.922C74.5296 17.9619 74.9294 18.0223 75.3498 18.1021L75.3196 39.548C75.1191 39.6085 74.8292 39.6677 74.4487 39.7281C74.0682 39.7885 73.6575 39.8187 73.2179 39.8187C72.7178 39.8187 72.2673 39.7837 71.8675 39.7136C71.4664 39.6435 71.1765 39.5891 70.9966 39.548L64.0018 27.8341V39.548C63.1212 39.7281 62.3204 39.8187 61.6005 39.8187C60.8806 39.8187 60.0701 39.7281 59.169 39.548V18.1021H59.1678Z" fill="#EE4A7C"></path>
  <path d="M84.625 39.5782C84.1648 39.658 83.7445 39.7184 83.364 39.7583C82.9835 39.7982 82.6139 39.8187 82.254 39.8187C81.894 39.8187 81.4785 39.7933 81.0074 39.7438C80.5376 39.693 80.0122 39.6193 79.4312 39.519L86.1554 18.0731C86.676 18.0126 87.1616 17.9631 87.6109 17.9232C88.0615 17.8833 88.5168 17.8628 88.977 17.8628C89.3575 17.8628 89.773 17.8833 90.2235 17.9232C90.6741 17.9631 91.1886 18.0138 91.7696 18.0731L98.4045 39.5492C97.2631 39.7293 96.2629 39.8199 95.4029 39.8199C95.0019 39.8199 94.6021 39.7994 94.2023 39.7595C93.8013 39.7196 93.3713 39.6592 92.9111 39.5794L91.7696 35.4041C91.2092 35.5648 90.6741 35.6845 90.1632 35.7642C89.6522 35.844 89.1473 35.8839 88.6473 35.8839C88.1871 35.8839 87.7172 35.8488 87.2365 35.7787C86.7557 35.7086 86.2557 35.6035 85.7351 35.4633L84.6238 39.5782H84.625ZM88.8284 23.7191L86.8173 31.4378C87.158 31.5381 87.478 31.6179 87.7776 31.6783C88.0784 31.7387 88.3876 31.7689 88.7089 31.7689C89.0483 31.7689 89.3841 31.7436 89.715 31.694C90.0448 31.6445 90.3902 31.5695 90.7502 31.4692L88.8284 23.7204V23.7191Z" fill="#EE4A7C"></path>
  <path d="M102.608 18.1021C103.589 18.0018 104.495 17.9063 105.324 17.8169C106.154 17.7262 107.03 17.6815 107.952 17.6815C109.052 17.6815 110.154 17.7866 111.254 17.9969C112.354 18.2072 113.335 18.5734 114.196 19.093C115.056 19.6139 115.757 20.3245 116.298 21.226C116.838 22.1276 117.108 23.2684 117.108 24.6497C117.108 25.3905 117.023 26.0564 116.854 26.6473C116.683 27.2383 116.463 27.764 116.193 28.2244C115.922 28.6849 115.623 29.0849 115.293 29.4257C114.962 29.7665 114.637 30.0565 114.317 30.297L119 39.548C118.519 39.6278 117.994 39.6882 117.424 39.7281C116.854 39.768 116.338 39.7885 115.878 39.7885C115.477 39.7885 115.012 39.768 114.481 39.7281C113.951 39.6882 113.486 39.6278 113.085 39.548L108.822 29.7266L109.093 29.5767C109.333 29.4571 109.598 29.2565 109.889 28.9761C110.179 28.6957 110.449 28.3598 110.699 27.9694C110.95 27.5791 111.16 27.144 111.33 26.663C111.5 26.1821 111.585 25.6817 111.585 25.1609C111.585 24.1602 111.305 23.4291 110.744 22.9687C110.184 22.5082 109.493 22.2774 108.673 22.2774C108.472 22.2774 108.302 22.2883 108.163 22.3076C108.023 22.3282 107.932 22.3475 107.892 22.368V39.548C106.831 39.7281 105.961 39.8187 105.281 39.8187C104.541 39.8187 103.649 39.7281 102.609 39.548V18.1021H102.608Z" fill="#EE4A7C"></path>
</svg>
